<?xml version="1.0" encoding="utf-8"?>
<?xml-stylesheet type="text/xsl" href="rss1.xsl"?>
<rss version="2.0" xmlns:atom="http://www.w3.org/2005/Atom" xmlns:content="http://purl.org/rss/1.0/modules/content/" xmlns:dc="http://purl.org/dc/elements/1.1/" xmlns:media="http://search.yahoo.com/mrss/">
<channel>
 <title>Getty</title>
 <link>http://www.gettyimg.com/</link>
 <atom:link href="http://www.gettyimg.com/" rel="self" type="application/rss+xml" />

 
                <item>
                <title><![CDATA[【Apple Music】WEB-RiP - Joel Corry &amp; Jax Jones - OUT OUT (feat. Charli XCX &amp; Saweetie (1080p)]]></title>
                <link><![CDATA[https://sharemania.us/threads/joel-corry-jax-jones-out-out-feat-charli-xcx-saweetie-1080p.229852/]]></link>
                <description><![CDATA[<article>
<blockquote class="messageText SelectQuoteContainer ugc baseHtml">
<img src="https://i.imgur.com/ofFqEDf.jpg" class="bbCodeImage LbImage" alt="[​IMG]" data-url="https://i.imgur.com/ofFqEDf.jpg" style=""><br>
<br>
<div class="bbCodeBlock bbCodeCode">
<div class="type">Code:</div>
<pre>General
Complete name                  : G:\Новая папка\Joel Corry &amp; Jax Jones - OUT OUT (feat. Charli XCX &amp; Saweetie.mp4
Format                         : MPEG-4
Format profile                 : Base Media
Codec ID                       : isom (isom/iso2/avc1/mp41)
File size                      : 229 MiB
Duration                       : 3 min 13 s
Overall bit rate               : 9 922 kb/s
Frame rate                     : 25.000 FPS
Movie name                     : OUT OUT (feat. Charli XCX &amp; Saweetie)
Performer                      : Joel Corry &amp; Jax Jones
Genre                          : Dance
Recorded date                  : 2021-08-27 07:00:00 UTC
Writing application            : Lavf54.59.106
Copyright                      : ℗ Under exclusive license to Warner Music UK Limited. An Asylum Records UK release, © 2021 Perfect Havoc Limited

Video
ID                             : 1
Format                         : AVC
Format/Info                    : Advanced Video Codec
Format profile                 : High@L4
Format settings                : CABAC / 5 Ref Frames
Format settings, CABAC         : Yes
Format settings, Reference fra : 5 frames
Codec ID                       : avc1
Codec ID/Info                  : Advanced Video Coding
Duration                       : 3 min 13 s
Bit rate                       : 9 659 kb/s
Width                          : 1 920 pixels
Height                         : 796 pixels
Display aspect ratio           : 2.40:1
Frame rate mode                : Constant
Frame rate                     : 25.000 FPS
Color space                    : YUV
Chroma subsampling             : 4:2:0
Bit depth                      : 8 bits
Scan type                      : Progressive
Bits/(Pixel*Frame)             : 0.253
Stream size                    : 223 MiB (97%)
Color range                    : Limited
Color primaries                : BT.709
Transfer characteristics       : BT.709
Matrix coefficients            : BT.709
Codec configuration box        : avcC

Audio
ID                             : 2
Format                         : AAC LC
Format/Info                    : Advanced Audio Codec Low Complexity
Codec ID                       : mp4a-40-2
Duration                       : 3 min 13 s
Bit rate mode                  : Constant
Bit rate                       : 265 kb/s
Channel(s)                     : 2 channels
Channel layout                 : L R
Sampling rate                  : 48.0 kHz
Frame rate                     : 46.875 FPS (1024 SPF)
Compression mode               : Lossy
Stream size                    : 5.99 MiB (3%)
Default                        : Yes
Alternate group                : 1

</pre>
</div>
<div class="bbCodeBlock bbCodeVfcHH HiddenContent">
<div class="attribution type">Hidden Content:</div>
<blockquote>You must either reply or click 'Like' to see the hidden information contained here.</blockquote>
</div>
<div class="messageTextEndMarker">&nbsp;</div>
</blockquote>
</article>]]></description>
                <author><![CDATA[vitalya3]]></author>
                </item>

                
                <item>
                <title><![CDATA[【Singles (lossless)】FLAC - JENNIE - You &amp; Me (Qobuz FLAC 24bits/48kHz)]]></title>
                <link><![CDATA[https://sharemania.us/threads/jennie-you-me-qobuz-flac-24bits-48khz.229851/]]></link>
                <description><![CDATA[<article>
<blockquote class="messageText SelectQuoteContainer ugc baseHtml">
<img src="https://images2.imgbox.com/3e/74/gy8PFSpy_o.jpg" class="bbCodeImage LbImage" alt="[​IMG]" data-url="https://images2.imgbox.com/3e/74/gy8PFSpy_o.jpg" style=""><br>
<br>
"<b>You &amp; Me</b>" is the first special single by <a href="https://kpop.fandom.com/wiki/Jennie" target="_blank" class="externalLink" rel="nofollow">Jennie</a> of <a href="https://kpop.fandom.com/wiki/BLACKPINK" target="_blank" class="externalLink" rel="nofollow">BLACKPINK</a>. It was released on October 6, 2023.<br>
<br>
<span data-s9e-mediaembed="youtube" style="display:inline-block;width:100%;max-width:640px"><span style="display:block;overflow:hidden;position:relative;padding-bottom:56.25%"><iframe allowfullscreen="" loading="lazy" scrolling="no" style="background:url(https://i.ytimg.com/vi/eQNHDV7lKgE/hqdefault.jpg) 50% 50% / cover;border:0;height:100%;left:0;position:absolute;width:100%" src="https://www.youtube.com/embed/eQNHDV7lKgE"></iframe></span></span><br>
<br>
<span style="font-size: 18px"><b>Track list</b></span><br>
<ol>
<li>"You &amp; Me" - 2:59</li>
<li>"You &amp; Me (Coachella ver.)" - 2:59</li>
</ol>
<div class="bbCodeBlock bbCodeVfcHH HiddenContent">
<div class="attribution type">Hidden Content:</div>
<blockquote>You must either reply or click 'Like' to see the hidden information contained here.</blockquote>
</div>
<div class="messageTextEndMarker">&nbsp;</div>
</blockquote>
</article>]]></description>
                <author><![CDATA[Eric Lyn]]></author>
                </item>

                
                <item>
                <title><![CDATA[【UPSCALED】The Weeknd &amp; Ariana Grande - Save Your Tears (Remix) [4K AI Upscale | HEVC 10-bit | PCM 16-bit 48 kHz | PCM 24-bit]]]></title>
                <link><![CDATA[https://sharemania.us/threads/the-weeknd-ariana-grande-save-your-tears-remix-4k-ai-upscale-hevc-10-bit-pcm-16-bit-48-khz-pcm-24-bit.229850/]]></link>
                <description><![CDATA[<article>
<blockquote class="messageText SelectQuoteContainer ugc baseHtml">
<b><img src="https://images2.imgbox.com/ef/e4/LuCsc37c_o.jpg" class="bbCodeImage LbImage" alt="[​IMG]" data-url="https://images2.imgbox.com/ef/e4/LuCsc37c_o.jpg" style=""> <br>
<br>
Genre: <span style="color: #0059b3">Pop, Funk / Soul</span> <br>
Style: <span style="color: #0059b3">Contemporary R&amp;B</span> <br>
Year: <span style="color: #0059b3">2021</span> <br>
Video Source: <span style="color: #0059b3">Master, ProRes, 1080p</span><br>
Audio Source: <span style="color: #0059b3">Master &amp; Qobuz</span></b><br>
<br>
"<b>Save Your Tears (Remix)</b>" is a remix song by The Weeknd featuring Ariana Grande. It was released on April 23, 2021, through XO and Republic Records. The accompanying animated music video was released the same day. The song is the third collaboration between the pair following "Love Me Harder" and "Off The Table", which are featured on her sophomore studio album, <i>My Everything</i> (2014), and her sixth studio album, <i>Positions</i> (2020), respectively. It was rumored on Grande's seventh studio album. The original song from The Weeknd's <i>After Hours</i> album was released on March 20, 2020.<br>
<br>
The remix garnered universal acclaim. <i>Billboard</i> staff member Katie Atkinson complimented, "Ariana Grande brings her ethereal vocals to the song". "The Weeknd and Ariana Grande's third collaboration will have you smiling all year long", <i>Billboard</i> journalist Gab Ginsberg exclaimed. Natalia Barr of <i>The Wall Street Journal</i> hailed it as one of the best new pop records, "the two singers have reunited on an updated piece from the Weeknd's new wave-inspired album from last year, <i>After Hours</i>. Grande adds her sultry vocals to the song's second verse and chorus". <i>NME</i> columnist Will Lavin noted, "Grande adds a fresh and husky verse of her own to the remix".<br>
<br>
Monica Sisavat from <i>PopSugar</i> described the remix as pure perfection, "Let's just say their voices together are just chef's kiss." "The pair's vocals intermingle on the wistful, synth-laden track as they harmonize," <i>Rolling Stone</i> editor Althea Legaspi stated. Apple Music celebrated the composition, "'Save Your Tears' is just as dreamy and lush as the 2020 original, but Grande's vocal acrobatics lend it a new dynamic—it's a duet now, two former lovers looking up at the same night sky, talking back and forth at a distance".<br>
<br>
The song is featured in the 2021 dance video game <i>Just Dance 2022</i>. The remix also earned six <i>Billboard</i> Music Awards nominations and has been streamed over 1.2 billion times on Spotify as of August 2023.<br>
<br>
<b>Release Info</b><br>
The video track is upscaled from 1080p to 4K with Topaz Video AI and encoded to HEVC 10-bit.<br>
The PCM tracks are lossless. The 16-bit 48 kHz track is the default track from the master.<br>
The 24-bit track is downloaded from Qobuz, edited and synced with Adobe Audition.<br>
The timed lyrics are synced and edited. Enable the subtitles to see the lyrics.<br>
<br>
<div class="ToggleTriggerAnchor bbCodeSpoilerContainer">
<button type="button" class="button bbCodeSpoilerButton ToggleTrigger Tooltip JsOnly" data-target="> .SpoilerTarget"><span>Spoiler: <span class="SpoilerTitle">Media Info</span></span></button>
<div class="SpoilerTarget bbCodeSpoilerText">
<div class="bbCodeBlock bbCodeCode">
<div class="type">Code:</div>
<pre>General
Unique ID                      : 311802363756539738073838942251258521236 (0xEA92F36EC4C07EEC16AE8C4AB918A694)
Complete name                  : The Weeknd &amp; Ariana Grande - Save Your Tears (Remix).mkv
Format                         : Matroska
Format version                 : Version 4 / Version 2
File size                      : 552 MiB
Duration                       : 3 min 13 s
Overall bit rate               : 23.9 Mb/s
Frame rate                     : 24.000 FPS
Encoded date                   : 2023-10-03 22:57:05 UTC
Writing application            : mkvmerge v76.0 ('Celebration') 64-bit
Writing library                : libebml v1.4.4 + libmatroska v1.7.1

Video
ID                             : 1
Format                         : HEVC
Format/Info                    : High Efficiency Video Coding
Format profile                 : Main 10@L5@Main
Codec ID                       : V_MPEGH/ISO/HEVC
Duration                       : 3 min 13 s
Bit rate                       : 19.5 Mb/s
Width                          : 3 840 pixels
Height                         : 2 160 pixels
Display aspect ratio           : 16:9
Frame rate mode                : Constant
Frame rate                     : 24.000 FPS
Color space                    : YUV
Chroma subsampling             : 4:2:0
Bit depth                      : 10 bits
Bits/(Pixel*Frame)             : 0.098
Stream size                    : 450 MiB (82%)
Language                       : English
Default                        : No
Forced                         : No
Color range                    : Limited
Color primaries                : BT.709
Transfer characteristics       : BT.709
Matrix coefficients            : BT.709

Audio #1
ID                             : 2
Format                         : PCM
Format settings                : Little / Signed
Codec ID                       : A_PCM/INT/LIT
Duration                       : 3 min 13 s
Bit rate mode                  : Constant
Bit rate                       : 2 117 kb/s
Channel(s)                     : 2 channels
Sampling rate                  : 44.1 kHz
Frame rate                     : 25.002 FPS (1764 SPF)
Bit depth                      : 24 bits
Delay relative to video        : -7 ms
Stream size                    : 48.8 MiB (9%)
Title                          : Lossless 24-bit 44.1 kHz
Language                       : English
Default                        : Yes
Forced                         : No

Audio #2
ID                             : 3
Format                         : PCM
Format settings                : Little / Signed
Codec ID                       : A_PCM/INT/LIT
Duration                       : 3 min 13 s
Bit rate mode                  : Constant
Bit rate                       : 2 304 kb/s
Channel(s)                     : 2 channels
Sampling rate                  : 48.0 kHz
Frame rate                     : 47.036 FPS (1020 SPF)
Bit depth                      : 24 bits
Delay relative to video        : -7 ms
Stream size                    : 53.1 MiB (10%)
Title                          : Lossless 16-bit 48 kHz
Language                       : English
Default                        : No
Forced                         : No

Text
ID                             : 4
Format                         : UTF-8
Codec ID                       : S_TEXT/UTF8
Codec ID/Info                  : UTF-8 Plain Text
Duration                       : 2 min 54 s
Bit rate                       : 45 b/s
Frame rate                     : 0.172 FPS
Count of elements              : 30
Stream size                    : 989 Bytes (0%)
Title                          : Lyrics
Language                       : English
Default                        : No
Forced                         : No
</pre>
</div></div>
</div><br>
<div class="bbCodeBlock bbCodeVfcHH HiddenContent">
<div class="attribution type">Hidden Content:</div>
<blockquote>You must reply before you can see the hidden data contained here.</blockquote>
</div>
<div class="messageTextEndMarker">&nbsp;</div>
</blockquote>
</article>]]></description>
                <author><![CDATA[ADHDerby]]></author>
                </item>

                </channel></rss>